<svg width="40" height="24" viewBox="0 0 40 24" fill="none" xmlns="http://www.w3.org/2000/svg">
<path d="M22.5625 12C22.5625 18.2125 17.5125 23.25 11.28 23.25C9.80066 23.252 8.33541 22.9626 6.96793 22.3983C5.60044 21.834 4.35749 21.0058 3.31005 19.9612C2.2626 18.9165 1.43117 17.6758 0.863235 16.3098C0.295296 14.9438 0.00196852 13.4794 0 12C0 5.78501 5.05 0.750014 11.28 0.750014C12.7596 0.747714 14.2251 1.0369 15.5928 1.60105C16.9606 2.1652 18.2039 2.99327 19.2516 4.03796C20.2993 5.08265 21.1309 6.3235 21.699 7.68965C22.2671 9.05579 22.5605 10.5205 22.5625 12ZM34.9375 12C34.9375 17.85 32.4125 22.59 29.2975 22.59C26.1825 22.59 23.6575 17.8475 23.6575 12C23.6575 6.15001 26.1825 1.41001 29.2975 1.41001C32.4125 1.41001 34.9375 6.15251 34.9375 12ZM40 12C40 17.24 39.1125 21.4875 38.015 21.4875C36.92 21.4875 36.0325 17.2375 36.0325 12C36.0325 6.76001 36.92 2.51251 38.0175 2.51251C39.1125 2.51251 40 6.76001 40 12Z" fill="white"/>
</svg>
