<svg width="49" height="54" viewBox="0 0 49 54" fill="none" xmlns="http://www.w3.org/2000/svg">
<path d="M0.5 13.6668V8.3335H5.83333V5.66683C5.83333 4.25234 6.39524 2.89579 7.39543 1.89559C8.39562 0.895399 9.75218 0.333496 11.1667 0.333496H27.1667V19.0002L33.8333 15.0002L40.5 19.0002V0.333496H43.1667C45.9667 0.333496 48.5 2.86683 48.5 5.66683V48.3335C48.5 51.1335 45.9667 53.6668 43.1667 53.6668H11.1667C8.36667 53.6668 5.83333 51.1335 5.83333 48.3335V45.6668H0.5V40.3335H5.83333V29.6668H0.5V24.3335H5.83333V13.6668H0.5ZM11.1667 24.3335H5.83333V29.6668H11.1667V24.3335ZM11.1667 13.6668V8.3335H5.83333V13.6668H11.1667ZM11.1667 45.6668V40.3335H5.83333V45.6668H11.1667Z" fill="#15008B"/>
</svg>
