<svg width="55" height="51" viewBox="0 0 55 51" fill="none" xmlns="http://www.w3.org/2000/svg">
<path d="M48.3802 15.0002L42.3268 8.94683C42.5135 7.82683 42.8068 6.78683 43.1802 5.88016C43.4362 5.27294 43.538 4.61181 43.4766 3.95569C43.4151 3.29957 43.1923 2.66884 42.828 2.11971C42.4637 1.57059 41.9692 1.12012 41.3885 0.808464C40.8079 0.496806 40.1592 0.333636 39.5002 0.333496C35.1268 0.333496 31.2602 2.44016 28.8335 5.66683H15.5002C7.3935 5.66683 0.833496 12.2268 0.833496 20.3335C0.833496 28.4402 7.50016 51.0002 7.50016 51.0002H22.1668V45.6668H27.5002V51.0002H42.1668L46.6468 36.0935L54.1668 33.5868V15.0002H48.3802ZM30.1668 19.0002H16.8335V13.6668H30.1668V19.0002ZM38.1668 24.3335C36.7002 24.3335 35.5002 23.1335 35.5002 21.6668C35.5002 20.2002 36.7002 19.0002 38.1668 19.0002C39.6335 19.0002 40.8335 20.2002 40.8335 21.6668C40.8335 23.1335 39.6335 24.3335 38.1668 24.3335Z" fill="#15008B"/>
</svg>
